<svg width="37" height="37" viewBox="0 0 37 37" fill="none" xmlns="http://www.w3.org/2000/svg">
<circle cx="18.5" cy="18.5" r="18" fill="#8F8F8F" stroke="#003D08"/>
<path d="M9.96202 24V22.824C12.664 20.234 14.442 18.484 14.442 16.972C14.442 15.95 13.896 15.334 12.902 15.334C12.132 15.334 11.53 15.852 10.998 16.412L9.86402 15.292C10.816 14.27 11.754 13.724 13.168 13.724C15.114 13.724 16.43 14.956 16.43 16.874C16.43 18.624 14.792 20.458 12.944 22.39C13.462 22.334 14.148 22.264 14.638 22.264H16.906V24H9.96202ZM18.9058 24V13.64H21.7478C24.9118 13.64 26.8578 15.278 26.8578 18.778C26.8578 22.264 24.9118 24 21.8598 24H18.9058ZM20.9778 22.334H21.6078C23.5538 22.334 24.7438 21.298 24.7438 18.778C24.7438 16.258 23.5538 15.292 21.6078 15.292H20.9778V22.334Z" fill="#F4FDED"/>
</svg>
