<svg width="37" height="37" viewBox="0 0 37 37" fill="none" xmlns="http://www.w3.org/2000/svg">
<circle cx="18.5" cy="18.5" r="18" fill="#F4FDED" stroke="#003D08"/>
<path d="M13.196 24.196C11.558 24.196 10.452 23.594 9.72402 22.754L10.704 21.452C11.32 22.054 12.062 22.53 13 22.53C14.064 22.53 14.778 22.026 14.778 21.144C14.778 20.178 14.176 19.562 11.922 19.562V18.078C13.826 18.078 14.442 17.448 14.442 16.58C14.442 15.796 13.938 15.334 13.056 15.334C12.314 15.334 11.712 15.698 11.096 16.272L10.046 14.998C10.942 14.228 11.936 13.724 13.14 13.724C15.142 13.724 16.5 14.704 16.5 16.426C16.5 17.518 15.87 18.274 14.778 18.722V18.778C15.954 19.1 16.85 19.954 16.85 21.27C16.85 23.132 15.184 24.196 13.196 24.196ZM18.9058 24V13.64H21.7478C24.9118 13.64 26.8578 15.278 26.8578 18.778C26.8578 22.264 24.9118 24 21.8598 24H18.9058ZM20.9778 22.334H21.6078C23.5538 22.334 24.7438 21.298 24.7438 18.778C24.7438 16.258 23.5538 15.292 21.6078 15.292H20.9778V22.334Z" fill="#003D08"/>
</svg>
