<svg width="31" height="30" viewBox="0 0 31 30" fill="none" xmlns="http://www.w3.org/2000/svg">
<mask id="path-1-inside-1_100_1022" fill="white">
<path fill-rule="evenodd" clip-rule="evenodd" d="M15.575 29C23.5831 29 30.075 22.5081 30.075 14.5C30.075 6.49187 23.5831 0 15.575 0C7.56682 0 1.07495 6.49187 1.07495 14.5C1.07495 15.8347 1.25528 17.1273 1.59291 18.3547L0.030072 27.3736C-0.197525 28.687 0.899186 29.8513 2.22386 29.7026L12.1357 28.5897C13.2382 28.8579 14.39 29 15.575 29Z"/>
</mask>
<path fill-rule="evenodd" clip-rule="evenodd" d="M15.575 29C23.5831 29 30.075 22.5081 30.075 14.5C30.075 6.49187 23.5831 0 15.575 0C7.56682 0 1.07495 6.49187 1.07495 14.5C1.07495 15.8347 1.25528 17.1273 1.59291 18.3547L0.030072 27.3736C-0.197525 28.687 0.899186 29.8513 2.22386 29.7026L12.1357 28.5897C13.2382 28.8579 14.39 29 15.575 29Z" fill="#003D08"/>
<path d="M1.59291 18.3547L3.56354 18.6962L3.63991 18.2555L3.52129 17.8243L1.59291 18.3547ZM0.030072 27.3736L2.0007 27.7151L2.0007 27.7151L0.030072 27.3736ZM2.22386 29.7026L2.44702 31.6901L2.44702 31.6901L2.22386 29.7026ZM12.1357 28.5897L12.6084 26.6463L12.2644 26.5627L11.9125 26.6022L12.1357 28.5897ZM28.075 14.5C28.075 21.4036 22.4785 27 15.575 27V31C24.6877 31 32.075 23.6127 32.075 14.5H28.075ZM15.575 2C22.4785 2 28.075 7.59644 28.075 14.5H32.075C32.075 5.3873 24.6877 -2 15.575 -2V2ZM3.07495 14.5C3.07495 7.59644 8.67139 2 15.575 2V-2C6.46225 -2 -0.925047 5.3873 -0.925047 14.5H3.07495ZM3.52129 17.8243C3.23075 16.768 3.07495 15.6538 3.07495 14.5H-0.925047C-0.925047 16.0156 -0.720179 17.4865 -0.335464 18.8851L3.52129 17.8243ZM2.0007 27.7151L3.56354 18.6962L-0.377719 18.0132L-1.94056 27.0321L2.0007 27.7151ZM2.0007 27.7151L2.0007 27.7151L-1.94056 27.0321C-2.39575 29.659 -0.202332 31.9876 2.44702 31.6901L2.0007 27.7151ZM11.9125 26.6022L2.0007 27.7151L2.44702 31.6901L12.3588 30.5772L11.9125 26.6022ZM15.575 27C14.5504 27 13.5573 26.8772 12.6084 26.6463L11.663 30.533C12.919 30.8385 14.2295 31 15.575 31V27Z" fill="#003D08" mask="url(#path-1-inside-1_100_1022)"/>
</svg>
