<svg width="31" height="30" viewBox="0 0 31 30" fill="none" xmlns="http://www.w3.org/2000/svg">
<mask id="path-1-inside-1_14_153" fill="white">
<path fill-rule="evenodd" clip-rule="evenodd" d="M16.2665 29C24.2746 29 30.7665 22.5081 30.7665 14.5C30.7665 6.49187 24.2746 0 16.2665 0C8.25835 0 1.76648 6.49187 1.76648 14.5C1.76648 15.8347 1.94681 17.1273 2.28444 18.3547L0.7216 27.3736C0.494003 28.687 1.59071 29.8513 2.91539 29.7026L12.8272 28.5897C13.9297 28.8579 15.0815 29 16.2665 29Z"/>
</mask>
<path d="M2.28444 18.3547L4.25507 18.6962L4.33144 18.2555L4.21282 17.8243L2.28444 18.3547ZM0.7216 27.3736L-1.24903 27.0321L-1.24903 27.0321L0.7216 27.3736ZM2.91539 29.7026L3.13855 31.6901H3.13855L2.91539 29.7026ZM12.8272 28.5897L13.2999 26.6463L12.9559 26.5627L12.604 26.6022L12.8272 28.5897ZM28.7665 14.5C28.7665 21.4036 23.17 27 16.2665 27V31C25.3792 31 32.7665 23.6127 32.7665 14.5H28.7665ZM16.2665 2C23.17 2 28.7665 7.59644 28.7665 14.5H32.7665C32.7665 5.3873 25.3792 -2 16.2665 -2V2ZM3.76648 14.5C3.76648 7.59644 9.36292 2 16.2665 2V-2C7.15378 -2 -0.233518 5.3873 -0.233518 14.5H3.76648ZM4.21282 17.8243C3.92228 16.768 3.76648 15.6538 3.76648 14.5H-0.233518C-0.233518 16.0156 -0.0286505 17.4865 0.356065 18.8851L4.21282 17.8243ZM2.69223 27.7151L4.25507 18.6962L0.313809 18.0132L-1.24903 27.0321L2.69223 27.7151ZM2.69223 27.7151L2.69223 27.7151L-1.24903 27.0321C-1.70423 29.659 0.489195 31.9876 3.13855 31.6901L2.69223 27.7151ZM12.604 26.6022L2.69223 27.7151L3.13855 31.6901L13.0504 30.5772L12.604 26.6022ZM16.2665 27C15.242 27 14.2488 26.8772 13.2999 26.6463L12.3545 30.533C13.6105 30.8385 14.921 31 16.2665 31V27Z" fill="#003D08" mask="url(#path-1-inside-1_14_153)"/>
</svg>
