<svg width="26" height="18" viewBox="0 0 26 18" fill="none" xmlns="http://www.w3.org/2000/svg">
<mask id="path-1-inside-1_14_57" fill="white">
<path fill-rule="evenodd" clip-rule="evenodd" d="M20.2425 17.9958C23.116 17.8828 25.4109 15.5176 25.4109 12.6164C25.4109 9.64307 23.0005 7.23273 20.0272 7.23273L20.0068 7.23277C19.7319 3.619 16.7126 0.772339 13.0284 0.772339C9.79473 0.772339 7.07326 2.96541 6.27019 5.94535C6.19041 5.94222 6.11024 5.94064 6.02969 5.94064C2.69959 5.94064 0 8.64023 0 11.9703C0 15.3004 2.69959 18 6.02969 18C6.03198 18 6.03427 18 6.03655 18H20.018C20.0211 18 20.0242 18 20.0272 18C20.0303 18 20.0333 18 20.0364 18H20.2425V17.9958Z"/>
</mask>
<path fill-rule="evenodd" clip-rule="evenodd" d="M20.2425 17.9958C23.116 17.8828 25.4109 15.5176 25.4109 12.6164C25.4109 9.64307 23.0005 7.23273 20.0272 7.23273L20.0068 7.23277C19.7319 3.619 16.7126 0.772339 13.0284 0.772339C9.79473 0.772339 7.07326 2.96541 6.27019 5.94535C6.19041 5.94222 6.11024 5.94064 6.02969 5.94064C2.69959 5.94064 0 8.64023 0 11.9703C0 15.3004 2.69959 18 6.02969 18C6.03198 18 6.03427 18 6.03655 18H20.018C20.0211 18 20.0242 18 20.0272 18C20.0303 18 20.0333 18 20.0364 18H20.2425V17.9958Z" fill="#F4FDED"/>
<path d="M20.2425 17.9958L20.2032 16.9966L19.2425 17.0344V17.9958H20.2425ZM20.0272 7.23273V6.23273L20.0253 6.23273L20.0272 7.23273ZM20.0068 7.23277L19.0097 7.30861L19.0801 8.23456L20.0087 8.23277L20.0068 7.23277ZM6.27019 5.94535L6.23099 6.94459L7.02816 6.97586L7.23574 6.20556L6.27019 5.94535ZM20.018 18L20.0199 17H20.018V18ZM20.0364 18V17L20.0345 17L20.0364 18ZM20.2425 18V19H21.2425V18H20.2425ZM20.2818 18.995C23.6898 18.861 26.4109 16.0567 26.4109 12.6164H24.4109C24.4109 14.9785 22.5423 16.9046 20.2032 16.9966L20.2818 18.995ZM26.4109 12.6164C26.4109 9.09079 23.5528 6.23273 20.0272 6.23273V8.23273C22.4482 8.23273 24.4109 10.1954 24.4109 12.6164H26.4109ZM20.0253 6.23273L20.0048 6.23277L20.0087 8.23277L20.0291 8.23273L20.0253 6.23273ZM21.0039 7.15692C20.6897 3.02579 17.2395 -0.227661 13.0284 -0.227661V1.77234C16.1857 1.77234 18.7741 4.2122 19.0097 7.30861L21.0039 7.15692ZM13.0284 -0.227661C9.33128 -0.227661 6.22235 2.27978 5.30464 5.68515L7.23574 6.20556C7.92416 3.65103 10.2582 1.77234 13.0284 1.77234V-0.227661ZM6.30939 4.94612C6.21656 4.94248 6.12332 4.94064 6.02969 4.94064V6.94064C6.09716 6.94064 6.16426 6.94197 6.23099 6.94459L6.30939 4.94612ZM6.02969 4.94064C2.1473 4.94064 -1 8.08795 -1 11.9703H1C1 9.19252 3.25187 6.94064 6.02969 6.94064V4.94064ZM-1 11.9703C-1 15.8527 2.1473 19 6.02969 19V17C3.25187 17 1 14.7482 1 11.9703H-1ZM6.02969 19C6.03132 19 6.03288 19 6.03396 19C6.03517 19 6.03589 19 6.03655 19V17C6.03492 17 6.03336 17 6.03229 17C6.03108 17 6.03035 17 6.02969 17V19ZM20.018 17H6.03655V19H20.018V17ZM20.0162 19C20.02 19 20.0238 19 20.0272 19V17C20.0246 17 20.0222 17 20.0199 17L20.0162 19ZM20.0272 19C20.0307 19 20.0344 19 20.0382 19L20.0345 17C20.0323 17 20.0299 17 20.0272 17V19ZM20.2425 17H20.0364V19H20.2425V17ZM19.2425 17.9958V18H21.2425V17.9958H19.2425Z" fill="#003D08" mask="url(#path-1-inside-1_14_57)"/>
</svg>
