<svg width="151" height="64" viewBox="0 0 151 64" fill="none" xmlns="http://www.w3.org/2000/svg">
<g clip-path="url(#clip0_40_993)">
<path fill-rule="evenodd" clip-rule="evenodd" d="M17.2449 4.96055C21.4472 5.28535 25.8259 7.4704 30.0175 11.8927C34.208 7.47164 38.5829 5.29075 42.7813 4.97317C47.5196 4.61472 51.7085 6.65747 54.7393 9.88037C60.6977 16.217 62.5689 27.6832 55.1752 35.57C55.1503 35.5966 55.1246 35.6225 55.0985 35.6478L31.4561 58.491C30.6396 59.2795 29.3954 59.2795 28.5789 58.491L4.93644 35.6478C4.9103 35.6225 4.88475 35.5966 4.85981 35.57C-2.5726 27.6421 -0.711439 16.1746 5.2667 9.84288C8.3048 6.62506 12.5022 4.59402 17.2449 4.96055Z" fill="#FF0000"/>
</g>
<path d="M41 35H76L91.5 15L109 54L122 35H149" stroke="#FF0000" stroke-width="3" stroke-linecap="round" stroke-linejoin="round"/>
<defs>
<clipPath id="clip0_40_993">
<rect width="60" height="64" fill="white"/>
</clipPath>
</defs>
</svg>
