<svg width="35" height="34" viewBox="0 0 35 34" fill="none" xmlns="http://www.w3.org/2000/svg">
<mask id="path-1-inside-1_74_1228" fill="white">
<path fill-rule="evenodd" clip-rule="evenodd" d="M18.1796 0.629589C17.7961 0.274349 17.2038 0.274349 16.8203 0.629588L0.751596 15.5164C0.0844698 16.1344 0.521784 17.25 1.43121 17.25H4.99994V32C4.99994 33.1045 5.89537 34 6.99994 34H27.9999C29.1045 34 29.9999 33.1045 29.9999 32V17.25H33.5687C34.4781 17.25 34.9154 16.1344 34.2483 15.5164L18.1796 0.629589Z"/>
</mask>
<path d="M16.8203 0.629588L15.4611 -0.837554L15.4611 -0.837553L16.8203 0.629588ZM18.1796 0.629589L16.8203 2.09673L16.8203 2.09673L18.1796 0.629589ZM0.751596 15.5164L2.11082 16.9835L2.11082 16.9835L0.751596 15.5164ZM4.99994 17.25H6.99994V15.25H4.99994V17.25ZM29.9999 17.25V15.25H27.9999V17.25H29.9999ZM34.2483 15.5164L35.6075 14.0493V14.0493L34.2483 15.5164ZM18.1796 2.09673C17.7961 2.45197 17.2038 2.45197 16.8203 2.09673L19.5388 -0.83755C18.3884 -1.90327 16.6114 -1.90327 15.4611 -0.837554L18.1796 2.09673ZM2.11082 16.9835L18.1796 2.09673L15.4611 -0.837553L-0.60763 14.0493L2.11082 16.9835ZM1.43121 15.25C2.34064 15.25 2.77794 16.3655 2.11082 16.9835L-0.60763 14.0493C-2.60901 15.9034 -1.29707 19.25 1.43121 19.25V15.25ZM4.99994 15.25H1.43121V19.25H4.99994V15.25ZM6.99994 32V17.25H2.99994V32H6.99994ZM6.99994 32L6.99994 32H2.99994C2.99994 34.2091 4.7908 36 6.99994 36V32ZM27.9999 32H6.99994V36H27.9999V32ZM27.9999 32V32V36C30.2091 36 31.9999 34.2091 31.9999 32H27.9999ZM27.9999 17.25V32H31.9999V17.25H27.9999ZM33.5687 15.25H29.9999V19.25H33.5687V15.25ZM32.889 16.9835C32.2219 16.3655 32.6592 15.25 33.5687 15.25V19.25C36.297 19.25 37.6089 15.9034 35.6075 14.0493L32.889 16.9835ZM16.8203 2.09673L32.889 16.9835L35.6075 14.0493L19.5388 -0.837552L16.8203 2.09673Z" fill="#003D08" mask="url(#path-1-inside-1_74_1228)"/>
</svg>
