<svg width="26" height="24" viewBox="0 0 26 24" fill="none" xmlns="http://www.w3.org/2000/svg">
<circle cx="9.5" cy="9.5" r="9" stroke="#003D08"/>
<mask id="path-2-inside-1_41_994" fill="white">
<path fill-rule="evenodd" clip-rule="evenodd" d="M20.2425 23.9958C23.116 23.8828 25.4109 21.5176 25.4109 18.6164C25.4109 15.6431 23.0005 13.2327 20.0272 13.2327L20.0068 13.2328C19.7319 9.619 16.7126 6.77234 13.0284 6.77234C9.79473 6.77234 7.07326 8.96541 6.27019 11.9454C6.19041 11.9422 6.11024 11.9406 6.02969 11.9406C2.69959 11.9406 0 14.6402 0 17.9703C0 21.3004 2.69959 24 6.02969 24C6.03198 24 6.03427 24 6.03655 24H20.018C20.0211 24 20.0242 24 20.0272 24C20.0303 24 20.0333 24 20.0364 24H20.2425V23.9958Z"/>
</mask>
<path fill-rule="evenodd" clip-rule="evenodd" d="M20.2425 23.9958C23.116 23.8828 25.4109 21.5176 25.4109 18.6164C25.4109 15.6431 23.0005 13.2327 20.0272 13.2327L20.0068 13.2328C19.7319 9.619 16.7126 6.77234 13.0284 6.77234C9.79473 6.77234 7.07326 8.96541 6.27019 11.9454C6.19041 11.9422 6.11024 11.9406 6.02969 11.9406C2.69959 11.9406 0 14.6402 0 17.9703C0 21.3004 2.69959 24 6.02969 24C6.03198 24 6.03427 24 6.03655 24H20.018C20.0211 24 20.0242 24 20.0272 24C20.0303 24 20.0333 24 20.0364 24H20.2425V23.9958Z" fill="#F4FDED"/>
<path d="M20.2425 23.9958L20.2032 22.9966L19.2425 23.0344V23.9958H20.2425ZM20.0272 13.2327V12.2327L20.0253 12.2327L20.0272 13.2327ZM20.0068 13.2328L19.0097 13.3086L19.0801 14.2346L20.0087 14.2328L20.0068 13.2328ZM6.27019 11.9454L6.23099 12.9446L7.02816 12.9759L7.23574 12.2056L6.27019 11.9454ZM20.018 24L20.0199 23H20.018V24ZM20.0364 24V23L20.0345 23L20.0364 24ZM20.2425 24V25H21.2425V24H20.2425ZM20.2818 24.995C23.6898 24.861 26.4109 22.0567 26.4109 18.6164H24.4109C24.4109 20.9785 22.5423 22.9046 20.2032 22.9966L20.2818 24.995ZM26.4109 18.6164C26.4109 15.0908 23.5528 12.2327 20.0272 12.2327V14.2327C22.4482 14.2327 24.4109 16.1954 24.4109 18.6164H26.4109ZM20.0253 12.2327L20.0048 12.2328L20.0087 14.2328L20.0291 14.2327L20.0253 12.2327ZM21.0039 13.1569C20.6897 9.02579 17.2395 5.77234 13.0284 5.77234V7.77234C16.1857 7.77234 18.7741 10.2122 19.0097 13.3086L21.0039 13.1569ZM13.0284 5.77234C9.33128 5.77234 6.22235 8.27978 5.30464 11.6851L7.23574 12.2056C7.92416 9.65103 10.2582 7.77234 13.0284 7.77234V5.77234ZM6.30939 10.9461C6.21656 10.9425 6.12332 10.9406 6.02969 10.9406V12.9406C6.09716 12.9406 6.16426 12.942 6.23099 12.9446L6.30939 10.9461ZM6.02969 10.9406C2.1473 10.9406 -1 14.0879 -1 17.9703H1C1 15.1925 3.25187 12.9406 6.02969 12.9406V10.9406ZM-1 17.9703C-1 21.8527 2.1473 25 6.02969 25V23C3.25187 23 1 20.7482 1 17.9703H-1ZM6.02969 25C6.03132 25 6.03288 25 6.03396 25C6.03517 25 6.03589 25 6.03655 25V23C6.03492 23 6.03336 23 6.03229 23C6.03108 23 6.03035 23 6.02969 23V25ZM20.018 23H6.03655V25H20.018V23ZM20.0162 25C20.02 25 20.0238 25 20.0272 25V23C20.0246 23 20.0222 23 20.0199 23L20.0162 25ZM20.0272 25C20.0307 25 20.0344 25 20.0382 25L20.0345 23C20.0323 23 20.0299 23 20.0272 23V25ZM20.2425 23H20.0364V25H20.2425V23ZM19.2425 23.9958V24H21.2425V23.9958H19.2425Z" fill="#003D08" mask="url(#path-2-inside-1_41_994)"/>
</svg>
