<svg width="23" height="25" viewBox="0 0 23 25" fill="none" xmlns="http://www.w3.org/2000/svg">
<line x1="6.41603" y1="15.7226" x2="12.416" y2="24.7227" stroke="#003D08"/>
<line x1="11.416" y1="15.7226" x2="17.416" y2="24.7227" stroke="#003D08"/>
<mask id="path-3-inside-1_41_996" fill="white">
<path fill-rule="evenodd" clip-rule="evenodd" d="M16.45 13.9966C18.7851 13.9047 20.65 11.9826 20.65 9.625C20.65 7.20875 18.6912 5.25 16.275 5.25L16.2584 5.25003C16.035 2.31332 13.5814 0 10.5875 0C7.95963 0 5.74804 1.78219 5.09544 4.20382C5.03061 4.20128 4.96545 4.2 4.9 4.2C2.1938 4.2 0 6.3938 0 9.09999C0 11.8062 2.1938 14 4.9 14C4.90206 14 4.90412 14 4.90618 14H16.2673C16.2699 14 16.2724 14 16.275 14C16.2776 14 16.2802 14 16.2827 14H16.45V13.9966Z"/>
</mask>
<path fill-rule="evenodd" clip-rule="evenodd" d="M16.45 13.9966C18.7851 13.9047 20.65 11.9826 20.65 9.625C20.65 7.20875 18.6912 5.25 16.275 5.25L16.2584 5.25003C16.035 2.31332 13.5814 0 10.5875 0C7.95963 0 5.74804 1.78219 5.09544 4.20382C5.03061 4.20128 4.96545 4.2 4.9 4.2C2.1938 4.2 0 6.3938 0 9.09999C0 11.8062 2.1938 14 4.9 14C4.90206 14 4.90412 14 4.90618 14H16.2673C16.2699 14 16.2724 14 16.275 14C16.2776 14 16.2802 14 16.2827 14H16.45V13.9966Z" fill="#F4FDED"/>
<path d="M16.45 13.9966L16.4107 12.9973L15.45 13.0351V13.9966H16.45ZM16.275 5.25V4.25L16.273 4.25L16.275 5.25ZM16.2584 5.25003L15.2613 5.32588L15.3317 6.25193L16.2604 6.25003L16.2584 5.25003ZM5.09544 4.20382L5.05624 5.20306L5.8534 5.23432L6.06099 4.46403L5.09544 4.20382ZM4.90618 14V13L4.90479 13L4.90618 14ZM16.2673 14L16.2691 13H16.2673V14ZM16.2827 14V13L16.2809 13L16.2827 14ZM16.45 14V15H17.45V14H16.45ZM16.4893 14.9958C19.3589 14.8829 21.65 12.5218 21.65 9.625H19.65C19.65 11.4435 18.2114 12.9265 16.4107 12.9973L16.4893 14.9958ZM21.65 9.625C21.65 6.65647 19.2435 4.25 16.275 4.25V6.25C18.139 6.25 19.65 7.76104 19.65 9.625H21.65ZM16.273 4.25L16.2564 4.25004L16.2604 6.25003L16.277 6.25L16.273 4.25ZM17.2555 5.17419C16.9928 1.72012 14.1083 -1 10.5875 -1V1C13.0545 1 15.0773 2.90653 15.2613 5.32588L17.2555 5.17419ZM10.5875 -1C7.49619 -1 4.89714 1.09656 4.12988 3.94362L6.06099 4.46403C6.59895 2.46781 8.42308 1 10.5875 1V-1ZM5.13463 3.20459C5.05676 3.20154 4.97854 3.2 4.9 3.2V5.2C4.95237 5.2 5.00445 5.20102 5.05624 5.20306L5.13463 3.20459ZM4.9 3.2C1.64152 3.2 -1 5.84152 -1 9.09999H1C1 6.94608 2.74609 5.2 4.9 5.2V3.2ZM-1 9.09999C-1 12.3585 1.64152 15 4.9 15V13C2.74609 13 1 11.2539 1 9.09999H-1ZM4.9 15C4.90235 15 4.9049 15 4.90757 15L4.90479 13C4.90334 13 4.90176 13 4.9 13V15ZM16.2673 13H4.90618V15H16.2673V13ZM16.2654 15C16.2687 15 16.2719 15 16.275 15V13C16.2729 13 16.271 13 16.2691 13L16.2654 15ZM16.275 15C16.2781 15 16.2813 15 16.2846 15L16.2809 13C16.279 13 16.2771 13 16.275 13V15ZM16.45 13H16.2827V15H16.45V13ZM15.45 13.9966V14H17.45V13.9966H15.45Z" fill="#003D08" mask="url(#path-3-inside-1_41_996)"/>
<line x1="16.416" y1="15.7226" x2="22.416" y2="24.7227" stroke="#003D08"/>
</svg>
