<svg width="32" height="26" viewBox="0 0 32 26" fill="none" xmlns="http://www.w3.org/2000/svg">
<path d="M3 1C3 0.447715 3.44772 0 4 0H28C28.5523 0 29 0.447715 29 1C29 1.55228 28.5523 2 28 2H4C3.44772 2 3 1.55228 3 1Z" fill="#003D08"/>
<path d="M0 13C0 12.4477 0.447715 12 1 12H31C31.5523 12 32 12.4477 32 13C32 13.5523 31.5523 14 31 14H1C0.447715 14 0 13.5523 0 13Z" fill="#003D08"/>
<path d="M3 25C3 24.4477 3.44772 24 4 24H28C28.5523 24 29 24.4477 29 25C29 25.5523 28.5523 26 28 26H4C3.44772 26 3 25.5523 3 25Z" fill="#003D08"/>
</svg>
